<?xml version="1.0" encoding="UTF-8" standalone="no"?><!DOCTYPE svg PUBLIC "-//W3C//DTD SVG 1.1//EN" "http://www.w3.org/Graphics/SVG/1.1/DTD/svg11.dtd"><svg width="100%" height="100%" viewBox="0 0 21 21" version="1.1" xmlns="http://www.w3.org/2000/svg" xmlns:xlink="http://www.w3.org/1999/xlink" xml:space="preserve" xmlns:serif="http://www.serif.com/" style="fill-rule:evenodd;clip-rule:evenodd;stroke-linejoin:round;stroke-miterlimit:2;"><path d="M7.858599187417,4.384094120796c1.175229870471,-2.108267296853 1.762826249054,-3.162405584441 2.641390927533,-3.162405584441c0.878564678479,0 1.466161057063,1.054129009264 2.64135381423,3.162396306117l0.3040507394,0.54543558725c0.334019732023,0.599101416472 0.500936814775,0.898661403032 0.761379422494,1.096308272688c0.26034982446,0.197646869656 0.58453453104,0.271010581907 1.233089510718,0.417747284733l0.590472659609,0.133589316933c2.282097035787,0.516366596421 3.42323833694,0.774545255469 3.694722152467,1.647552091108c0.271483815527,0.872969722341 -0.50641102705,1.782709444891 -2.062293495465,3.6020033235l-0.402493777088,0.47068940464c-0.442112228636,0.516988244166 -0.663214734583,0.775482366249 -0.762678388119,1.095306213636c-0.099370870277,0.319823847387 -0.065968897075,0.664699171071 0.00083504933,1.354542601683l0.060865817835,0.627957005836c0.235205561299,2.427395269898 0.352854733579,3.641092904847 -0.357865029559,4.18062747768c-0.710812546396,0.539534572833 -1.779211772575,0.047597804964 -3.916010224933,-0.93618294753l-0.552802656498,-0.25459722577c-0.60717364621,-0.279555918821 -0.910760469316,-0.419380269855 -1.232625594423,-0.419380269855c-0.321865125108,0 -0.625451948213,0.139824351033 -1.232625594423,0.419380269855l-0.552802656498,0.25459722577c-2.136817009009,0.983780752493 -3.205216235188,1.475717520363 -3.915963833303,0.93618294753c-0.710747598115,-0.539534572833 -0.59313553914,-1.753232207782 -0.357911421188,-4.18062747768l0.060847261183,-0.627957005836c0.066850338034,-0.689843430613 0.100270867888,-1.034718754296 0.000816492678,-1.354542601683c-0.099445096884,-0.319823847387 -0.320501211202,-0.57831796947 -0.762622718164,-1.095306213636l-0.402512333739,-0.47068940464c-1.555836076785,-1.819293878609 -2.33375875434,-2.729033601159 -2.062274938813,-3.6020033235c0.271483815527,-0.873006835639 1.412569446725,-1.131185494688 3.694740709119,-1.647552091108l0.59042626798,-0.133589316933c0.648517866374,-0.146736702826 0.972776799561,-0.220100415077 1.233135902347,-0.417747284733c0.260359102786,-0.197646869656 0.427350412146,-0.497197577892 0.761314474213,-1.096308272688l0.304041461074,-0.545426308925Z" style="fill:#fd9;fill-rule:nonzero;"/></svg>