<?xml version="1.0" encoding="UTF-8" standalone="no"?><!DOCTYPE svg PUBLIC "-//W3C//DTD SVG 1.1//EN" "http://www.w3.org/Graphics/SVG/1.1/DTD/svg11.dtd"><svg width="100%" height="100%" viewBox="0 0 21 21" version="1.1" xmlns="http://www.w3.org/2000/svg" xmlns:xlink="http://www.w3.org/1999/xlink" xml:space="preserve" xmlns:serif="http://www.serif.com/" style="fill-rule:evenodd;clip-rule:evenodd;stroke-linejoin:round;stroke-miterlimit:2;"><path id="godot_gas" d="M10.5,0.78748425c0.74859119167,-0.014024187177 1.733893611152,0.722039255147 2.2042125,1.483097c0.9027375,1.46078625 2.33345,2.41698625 3.8346875,1.91139375l0.3821125,-0.12868625c0.8589,-0.2892575 1.8087125,0.05359375 2.263275,0.817005l0.6867,1.15308375c0.45465,0.7634375 0.28595,1.732325 -0.4018875,2.30883625l-0.3059,0.2563925c-1.2023375,1.00769375 -1.2023375,2.81509375 0,3.82274375l0.3059,0.256375c0.6878375,0.5765375 0.8565375,1.545425 0.4018875,2.3088625l-0.6866125,1.153075c-0.45465,0.7634375 -1.4044625,1.1062625 -2.26345,0.8169875l-0.3819375,-0.1287125c-1.501325,-0.5056625 -3.1157875,0.3980375 -3.414775,1.9114375l-0.0760375,0.385c-0.1710625,0.8658125 -0.9522625,1.491875 -1.861475,1.491875l-1.3734,0c-0.9092125,0 -1.69040375,-0.6260625 -1.86146625,-1.4917875l-0.07611625,-0.3852625c-0.29901375,-1.513225 -1.91351125,-2.416925 -3.414775,-1.9112625l-0.38187625,0.128625c-0.85892625,0.2893625 -1.8087475,-0.05355 -2.2633975,-0.8169875l-0.68665625,-1.1529875c-0.454633375,-0.7634375 -0.28599725,-1.732325 0.4018525,-2.3088625l0.3059525,-0.256375c1.2022675,-1.0077375 1.2022675,-2.81505 0,-3.8227l-0.3059525,-0.2564275c-0.68784975,-0.57652 -0.856485,-1.54539 -0.4018525,-2.30881l0.6866825,-1.1530925c0.4546325,-0.76342875 1.4044275,-1.10628 2.263345,-0.817005l0.38198125,0.12865125c1.5012375,0.50560125 3.5881825,-0.5555375 4.07094625,-1.91128875c0.375900874007,-1.055646949074 0.721132361954,-1.459833689907 1.9680325,-1.48319325Zm4.381576171875,11.33074621875c0.75427734375,-1.656662109375 0.458267578125,-3.4441640625 -0.812396484375,-4.903376953125c-0.3971953125,-0.456544921875 -2.146798828125,-1.90517578125 -2.711501953125,-3.532716796875c-0.0739921875,-0.213568359375 -0.24880078125,-0.376728515625 -0.466798828125,-0.4362421875c-0.217095703125,-0.058365234375 -0.451171875,-0.007341796875 -0.62368359375,0.13887890625c-1.0659140625,0.906404296875 -1.31914453125,2.4378046875 -0.752513671875,4.552078125c-0.7035,-0.088962890625 -1.02809765625,-0.39120703125 -1.299580078125,-0.817646484375c-0.1074609375,-0.168943359375 -0.283541015625,-0.28243359375 -0.481482421875,-0.310529296875c-0.1983515625,-0.0273984375 -0.398548828125,0.03191015625 -0.5487890625,0.16430859375c-1.061771484375,0.934951171875 -2.1735,3.386455078125 -0.7886484375,5.667703125c0.86403515625,1.422216796875 2.436451171875,2.30581640625 4.103818359375,2.30581640625c1.879130859375,0 3.59912109375,-1.110046875 4.381576171875,-2.8282734375Z" style="fill:url(#_Linear1);"/><defs><linearGradient id="_Linear1" x1="0" y1="0" x2="1" y2="0" gradientUnits="userSpaceOnUse" gradientTransform="matrix(0,-19.818963,20.404751,0,10.5,20.60625)"><stop offset="0" style="stop-color:#e0e0e0;stop-opacity:1"/><stop offset="0.29" style="stop-color:#e6dfd2;stop-opacity:1"/><stop offset="0.4" style="stop-color:#f3deb5;stop-opacity:1"/><stop offset="0.5" style="stop-color:#fd9;stop-opacity:1"/><stop offset="1" style="stop-color:#fc7f7f;stop-opacity:1"/></linearGradient></defs></svg>