<?xml version="1.0" encoding="UTF-8" standalone="no"?><!DOCTYPE svg PUBLIC "-//W3C//DTD SVG 1.1//EN" "http://www.w3.org/Graphics/SVG/1.1/DTD/svg11.dtd"><svg width="100%" height="100%" viewBox="0 0 21 21" version="1.1" xmlns="http://www.w3.org/2000/svg" xmlns:xlink="http://www.w3.org/1999/xlink" xml:space="preserve" xmlns:serif="http://www.serif.com/" style="fill-rule:evenodd;clip-rule:evenodd;stroke-linejoin:round;stroke-miterlimit:2;"><path d="M10.666666666667,17.958177938822c-0.056117567617,-0.008329814205 -0.111124818856,-0.012494959819 -0.166676551717,-0.012494959819c-0.321865125108,0 -0.625451948213,0.139824351033 -1.232625594423,0.419380269855l-0.552802656498,0.25459722577c-2.136817009009,0.983780752493 -3.205216235188,1.475717520363 -3.915963833303,0.93618294753c-0.710747598115,-0.539534572833 -0.59313553914,-1.753232207782 -0.357911421188,-4.18062747768l0.060847261183,-0.627957005836c0.066850338034,-0.689843430613 0.100270867888,-1.034718754296 0.000816492678,-1.354542601683c-0.099445096884,-0.319823847387 -0.320501211202,-0.57831796947 -0.762622718164,-1.095306213636l-0.402512333739,-0.47068940464c-1.555836076785,-1.819293878609 -2.33375875434,-2.729033601159 -2.062274938813,-3.6020033235c0.271483815527,-0.873006835639 1.412569446725,-1.131185494688 3.694740709119,-1.647552091108l0.59042626798,-0.133589316933c0.648517866374,-0.146736702826 0.972776799561,-0.220100415077 1.233135902347,-0.417747284733c0.260359102786,-0.197646869656 0.427350412146,-0.497197577892 0.761314474213,-1.096308272688l0.304041461074,-0.545426308925c1.175229870471,-2.108267296853 1.762826249054,-3.162405584441 2.641390927533,-3.162405584441c0.878564678479,0 1.466161057063,1.054129009264 2.64135381423,3.162396306117l0.3040507394,0.54543558725c0.334019732023,0.599101416472 0.500936814775,0.898661403032 0.761379422494,1.096308272688c0.26034982446,0.197646869656 0.58453453104,0.271010581907 1.233089510718,0.417747284733l0.590472659609,0.133589316933c2.282097035787,0.516366596421 3.42323833694,0.774545255469 3.694722152467,1.647552091108c0.271483815527,0.872969722341 -0.50641102705,1.782709444891 -2.062293495465,3.6020033235l-0.402493777088,0.47068940464c-0.077496225182,0.090620966333 -0.148201861733,0.173299624855 -0.212652093697,0.249758458419l0,-0.816476165715l-0.040318567623,-0.394218417735l-0.11531838663,-0.368334755976l-0.180419594203,-0.330776575815l-0.236641748987,-0.286352905412l-0.286352905412,-0.236641748987l-0.330776575815,-0.180419594203l-0.368334755976,-0.11531838663l-0.394218417735,-0.040318567623l-0.394218417735,0.040318567623l-0.368334755976,0.11531838663l-0.330776575815,0.180419594203l-0.286352905412,0.236641748987l-0.236641748987,0.286352905412l-0.180419594203,0.330776575815l-0.11531838663,0.368334755976l-0.040318567623,0.394218417735l0,1.771475946188l-0.420892546963,0.042298621794l-0.484627580403,0.149836860834l-0.437972189901,0.237114198537l-0.380340533839,0.313536759636l-0.313536759636,0.380340533839l-0.237114198537,0.437972189901l-0.149836860834,0.484627580403l-0.051869806077,0.516130642201l0,0.619047619048c0,0.106556114902 0.012499533461,0.210192807338 0.0361123316,0.309523813732c-0.02361279815,0.099330998024 -0.036112331612,0.202967690511 -0.0361123316,0.309523805466l0,0.656056951218Z" style="fill:#e0e0e0;"/><path d="M15.095238095238,11.111644796979c-0.339599476886,0 -0.619047619048,0.279448142161 -0.619047619048,0.619047619048l0,3.095238095238l-1.238095238095,0c-0.685904761905,0 -1.238095238095,0.55219047619 -1.238095238095,1.238095238095l0,0.619047619048l6.190476190476,0l0,-0.619047619048c0,-0.685904761905 -0.55219047619,-1.238095238095 -1.238095238095,-1.238095238095l-1.238095238095,0l0,-3.095238095238c0,-0.339599476886 -0.279448142161,-0.619047619048 -0.619047619048,-0.619047619048Zm-3.095238095238,6.190476190476l0,2.47619047619l6.190476190476,-0.619047619048l0,-1.857142857143l-6.190476190476,0Z" style="fill:#e0e0e0;fill-rule:nonzero;"/></svg>