<?xml version="1.0" encoding="UTF-8" standalone="no"?><!DOCTYPE svg PUBLIC "-//W3C//DTD SVG 1.1//EN" "http://www.w3.org/Graphics/SVG/1.1/DTD/svg11.dtd"><svg width="100%" height="100%" viewBox="0 0 21 21" version="1.1" xmlns="http://www.w3.org/2000/svg" xmlns:xlink="http://www.w3.org/1999/xlink" xml:space="preserve" xmlns:serif="http://www.serif.com/" style="fill-rule:evenodd;clip-rule:evenodd;stroke-linejoin:round;stroke-miterlimit:2;"><path d="M9.806373064043,1.218484344746c0.380548215158,-0.370732359552 1.006705656755,-0.370732359552 1.387253871913,-0c0.794678667786,0.774414574683 1.935680261163,1.233326915237 3.122792838967,1.472343759275c1.179263899604,0.237104709286 2.30260596703,0.235192574534 2.943254325134,0.165399656074c0.035836376217,-0.003864935512 0.071864153645,-0.005801811767 0.107919327551,-0.005801811767c0.538207184932,0 0.981084775045,0.431584330229 0.981084775045,0.956067376152c0,0.000021802503 -0.000000002296,8.604671792882 -0.000000002296,8.604671792882c0,1.242887588998 -0.557256152225,2.341409004197 -1.279334546658,3.245848742038c-0.724040563983,0.906351872593 -1.664900863251,1.685546784157 -2.565536686742,2.312726982913c-1.12794109494,0.778238598096 -2.330463063563,1.448374869531 -3.590770276664,2.001049018287l-0.017659525951,0.007648539009l-0.00588650865,0.002868202128l-0.00196216955,0c0,0 -0.000981084775,0.001912134752 -0.387528486143,-0.877669851308l-0.386547401368,0.878625918684l-0.002943254325,-0.000956067376l-0.004905423875,-0.002868202128l-0.019621695501,-0.007648539009c-0.377073712952,-0.165531344771 -0.749065926465,-0.341842779241 -1.115493389226,-0.528705259012c-0.858102910683,-0.435482288053 -1.684780894719,-0.927401713942 -2.474295802663,-1.472343759275c-0.900635823491,-0.627180198756 -1.841496122759,-1.405419042944 -2.565536686742,-2.312726982913c-0.722078394433,-0.903483670464 -1.279334546658,-2.002961153039 -1.279334546658,-3.245848742038c0,0 -0.000000002296,-8.604649990379 -0.000000002296,-8.604671792882c0,-0.524483045923 0.442877590113,-0.956067376152 0.981084775045,-0.956067376152c0.036055173906,0 0.072082951334,0.001936876255 0.107919327551,0.005801811767c0.640648358104,0.069792918459 1.76399042553,0.071705053211 2.943254325134,-0.165399656074c1.187112577804,-0.239016844038 2.328114171181,-0.697929184591 3.122792838967,-1.472343759275Zm0.307079534589,18.763778324368c0.246729124909,0.103069674407 0.526365677826,0.103069674407 0.773094802735,0l-0.386547401368,-0.878625918684l-0.386547401368,0.878625918684Zm1.367632176412,-10.439299680208l0,-1.912134752305c0,-0.524483045923 -0.442877590113,-0.956067376152 -0.981084775045,-0.956067376152c-0.538207184932,0 -0.981084775045,0.431584330229 -0.981084775045,0.956067376152l0,1.912134752305l-1.962169550089,0c-0.538207184932,0 -0.981084775045,0.431584330229 -0.981084775045,0.956067376152c0,0.524483045923 0.442877590113,0.956067376152 0.981084775045,0.956067376152l1.962169550089,0l0,1.912134752305c0,0.524483045923 0.442877590113,0.956067376152 0.981084775045,0.956067376152c0.538207184932,0 0.981084775045,-0.431584330229 0.981084775045,-0.956067376152l0,-1.912134752305l1.962169550089,0c0.538207184932,0 0.981084775045,-0.431584330229 0.981084775045,-0.956067376152c0,-0.524483045923 -0.442877590113,-0.956067376152 -0.981084775045,-0.956067376152l-1.962169550089,0Z" style="fill:#8da5f3;"/></svg>