<?xml version="1.0" encoding="UTF-8" standalone="no"?><!DOCTYPE svg PUBLIC "-//W3C//DTD SVG 1.1//EN" "http://www.w3.org/Graphics/SVG/1.1/DTD/svg11.dtd"><svg width="100%" height="100%" viewBox="0 0 16 16" version="1.1" xmlns="http://www.w3.org/2000/svg" xmlns:xlink="http://www.w3.org/1999/xlink" xml:space="preserve" xmlns:serif="http://www.serif.com/" style="fill-rule:evenodd;clip-rule:evenodd;stroke-linejoin:round;stroke-miterlimit:2;"><path d="M14.564,2l-2.244,0.328l0.818,1.9l1.715,-0.25l-0.289,-1.978Zm-4.223,0.615l-1.978,0.29l0.818,1.902l1.979,-0.29l-0.819,-1.902Zm-3.959,0.578l-1.978,0.29l0.818,1.902l1.979,-0.29l-0.819,-1.902Zm-3.957,0.578l-1.714,0.25l0.289,1.979l2.244,-0.328l-0.819,-1.901Zm-1.425,3.229l0,6c0,1.097 0.903,2 2,2l12,0l0,-8l-14,0Zm5,1l5,3l-5,3l0,-6Z" style="fill:#e0e0e0;fill-rule:nonzero;"/></svg>