<?xml version="1.0" encoding="UTF-8" standalone="no"?><!DOCTYPE svg PUBLIC "-//W3C//DTD SVG 1.1//EN" "http://www.w3.org/Graphics/SVG/1.1/DTD/svg11.dtd"><svg width="100%" height="100%" viewBox="0 0 16 16" version="1.1" xmlns="http://www.w3.org/2000/svg" xmlns:xlink="http://www.w3.org/1999/xlink" xml:space="preserve" xmlns:serif="http://www.serif.com/" style="fill-rule:evenodd;clip-rule:evenodd;stroke-linejoin:round;stroke-miterlimit:2;"><g id="godot-gas-asc"><path d="M0.791,4.947c0.016,-0.268 0.01,-0.269 0.095,-0.566c0.125,-0.434 0.442,-0.867 0.852,-1.123c0.041,-0.026 0.399,-0.25 0.513,-0.314c0.752,-0.423 3.113,-1.82 3.609,-2.095c0.06,-0.033 0.526,-0.318 0.653,-0.381c0.243,-0.122 1.215,-0.909 2.506,-0.125c0.269,0.163 0.424,0.235 0.492,0.278c0.374,0.237 0.384,0.216 0.706,0.41c0.217,0.131 0.219,0.125 0.436,0.254c0.771,0.46 0.778,0.445 0.845,0.485c0.463,0.283 2.349,1.352 2.569,1.51c0.035,0.025 0.278,0.199 0.401,0.361c0.521,0.684 0.494,1.173 0.495,1.515c0,0.32 0.003,3.081 -0.001,3.995c-0.008,1.73 0.023,1.93 -0.123,2.309c-0.264,0.686 -0.734,0.967 -0.807,1.018c-0.219,0.152 -1.073,0.628 -1.224,0.721c-0.19,0.116 -2.068,1.218 -2.248,1.324c-0.945,0.554 -0.945,0.554 -1.028,0.601c-0.429,0.239 -1.157,0.838 -2.182,0.551c-0.47,-0.132 -0.562,-0.249 -1.176,-0.589c-0.195,-0.108 -0.187,-0.118 -0.381,-0.229c-0.694,-0.399 -0.688,-0.406 -1.381,-0.806c-1.052,-0.609 -1.048,-0.615 -1.14,-0.668c-0.05,-0.029 -0.613,-0.353 -0.626,-0.361c-0.62,-0.402 -1.346,-0.63 -1.685,-1.481c-0.225,-0.564 -0.164,-0.914 -0.164,-1.196c-0,-0.135 -0.003,-1.619 -0.005,-1.682c-0.001,-0.063 -0.003,-3.334 -0,-3.714Z" style="fill:#d25a41;"/><path d="M11.679,9.286c-0.031,0.242 -0.07,1.101 -1.023,1.918c-0.532,0.457 -1.128,0.633 -1.192,0.625c-0.252,-0.033 -0.066,-0.326 -0.051,-0.35c0.06,-0.094 0.314,-0.445 0.385,-0.981c0.087,-0.661 -0.301,-1.333 -0.36,-1.436c-0.105,-0.181 -0.348,-0.523 -0.392,-0.557c-0.129,-0.099 -0.18,-0.019 -0.151,0.142c0.049,0.283 -0.087,0.587 -0.432,0.281c-0.479,-0.426 -0.639,-1.027 -0.595,-1.485c0.019,-0.192 0.095,-0.467 -0.003,-0.501c-0.126,-0.043 -0.226,0.078 -0.444,0.309c-1.041,1.097 -1.184,1.777 -1.325,2.203c-0.129,0.391 -0.127,1.099 -0.011,1.445c0.211,0.629 0.334,0.664 0.295,0.797c-0.005,0.019 -0.044,0.149 -0.206,0.126c-0.044,-0.006 -0.457,-0.164 -0.56,-0.218c-0.701,-0.365 -1.02,-0.829 -1.085,-0.923c-0.151,-0.22 -0.148,-0.222 -0.272,-0.514c-0.413,-0.965 -0.046,-1.916 0.014,-2.07c0.507,-1.311 1.265,-1.816 1.956,-3.157c0.333,-0.645 0.456,-1.248 0.479,-1.361c0.137,-0.669 0.051,-1.005 0.347,-1.025c0.169,-0.011 0.166,0.025 0.857,0.501c0.112,0.077 0.482,0.395 0.523,0.43c0.424,0.364 1.355,1.243 1.986,2.193c0.161,0.242 0.166,0.237 0.321,0.483c0.091,0.145 0.744,1.114 0.911,2.241c0.055,0.372 0.031,0.813 0.028,0.884Z" style="fill:#fff;"/></g></svg>