<?xml version="1.0" encoding="UTF-8" standalone="no"?><!DOCTYPE svg PUBLIC "-//W3C//DTD SVG 1.1//EN" "http://www.w3.org/Graphics/SVG/1.1/DTD/svg11.dtd"><svg width="100%" height="100%" viewBox="0 0 16 16" version="1.1" xmlns="http://www.w3.org/2000/svg" xmlns:xlink="http://www.w3.org/1999/xlink" xml:space="preserve" xmlns:serif="http://www.serif.com/" style="fill-rule:evenodd;clip-rule:evenodd;stroke-linejoin:round;stroke-miterlimit:2;"><g id="godot-gas-dashboard"><path d="M0.862,4.947c0.016,-0.268 0.01,-0.269 0.095,-0.566c0.125,-0.434 0.442,-0.867 0.852,-1.123c0.041,-0.026 0.399,-0.25 0.513,-0.314c0.752,-0.423 3.113,-1.82 3.609,-2.095c0.06,-0.033 0.526,-0.318 0.653,-0.381c0.243,-0.122 1.215,-0.909 2.506,-0.125c0.269,0.163 0.424,0.235 0.492,0.278c0.374,0.237 0.384,0.216 0.706,0.41c0.217,0.131 0.219,0.125 0.436,0.254c0.771,0.46 0.778,0.445 0.845,0.485c0.463,0.283 2.349,1.352 2.569,1.51c0.035,0.025 0.278,0.199 0.401,0.361c0.521,0.684 0.494,1.173 0.495,1.515c0,0.32 0.003,3.081 -0.001,3.995c-0.008,1.73 0.023,1.93 -0.123,2.309c-0.264,0.686 -0.734,0.967 -0.807,1.018c-0.219,0.152 -1.073,0.628 -1.224,0.721c-0.19,0.116 -2.068,1.218 -2.248,1.324c-0.945,0.554 -0.945,0.554 -1.028,0.601c-0.429,0.239 -1.157,0.838 -2.182,0.551c-0.47,-0.132 -0.562,-0.249 -1.176,-0.589c-0.195,-0.108 -0.187,-0.118 -0.381,-0.229c-0.694,-0.399 -0.688,-0.406 -1.381,-0.806c-1.052,-0.609 -1.048,-0.615 -1.14,-0.668l-0.626,-0.361c-0.62,-0.402 -1.346,-0.63 -1.685,-1.481c-0.225,-0.564 -0.164,-0.914 -0.164,-1.196c-0,-0.135 -0.003,-1.619 -0.005,-1.682c-0.001,-0.063 -0.003,-3.334 -0,-3.714Zm10.888,4.339c0.004,-0.071 0.028,-0.512 -0.028,-0.884c-0.167,-1.127 -0.82,-2.097 -0.911,-2.241c-0.155,-0.246 -0.16,-0.241 -0.321,-0.483c-0.631,-0.95 -1.562,-1.829 -1.986,-2.193c-0.041,-0.035 -0.411,-0.353 -0.523,-0.43c-0.691,-0.477 -0.688,-0.513 -0.857,-0.501c-0.296,0.02 -0.21,0.356 -0.347,1.025c-0.023,0.113 -0.147,0.715 -0.479,1.361c-0.691,1.341 -1.449,1.846 -1.956,3.157c-0.06,0.154 -0.427,1.105 -0.014,2.07c0.125,0.291 0.121,0.294 0.272,0.514c0.065,0.094 0.384,0.558 1.085,0.923c0.104,0.054 0.516,0.212 0.56,0.218c0.162,0.023 0.2,-0.108 0.206,-0.126c0.039,-0.134 -0.084,-0.169 -0.295,-0.797c-0.116,-0.346 -0.119,-1.054 0.011,-1.445c0.141,-0.426 0.284,-1.106 1.325,-2.203c0.219,-0.23 0.318,-0.352 0.444,-0.309c0.097,0.034 0.022,0.309 0.003,0.501c-0.044,0.459 0.116,1.06 0.595,1.485c0.345,0.307 0.482,0.002 0.432,-0.281c-0.028,-0.161 0.023,-0.242 0.151,-0.142c0.043,0.034 0.287,0.375 0.392,0.557c0.059,0.103 0.447,0.775 0.36,1.436c-0.071,0.537 -0.325,0.887 -0.385,0.981c-0.015,0.024 -0.202,0.317 0.051,0.35c0.064,0.008 0.659,-0.168 1.192,-0.625c0.953,-0.817 0.992,-1.676 1.023,-1.918Z" style="fill:#e0e0e0;"/></g></svg>