<?xml version="1.0" encoding="UTF-8" standalone="no"?><!DOCTYPE svg PUBLIC "-//W3C//DTD SVG 1.1//EN" "http://www.w3.org/Graphics/SVG/1.1/DTD/svg11.dtd"><svg width="100%" height="100%" viewBox="0 0 16 16" version="1.1" xmlns="http://www.w3.org/2000/svg" xmlns:xlink="http://www.w3.org/1999/xlink" xml:space="preserve" xmlns:serif="http://www.serif.com/" style="fill-rule:evenodd;clip-rule:evenodd;stroke-linejoin:round;stroke-miterlimit:2;"><path d="M6,3c-0.265,0 -0.52,0.106 -0.707,0.293l-4,4c-0.388,0.388 -0.388,1.026 0,1.414l4,4c0.187,0.187 0.442,0.293 0.707,0.293l8,0c0.549,0 1,-0.451 1,-1l0,-8c0,-0.549 -0.451,-1 -1,-1l-8,0Zm-1,4c0.549,0 1,0.451 1,1c0,0.549 -0.451,1 -1,1c-0.549,0 -1,-0.451 -1,-1c0,-0.549 0.451,-1 1,-1Z" style="fill:#e0e0e0;fill-rule:nonzero;"/></svg>