<?xml version="1.0" encoding="UTF-8" standalone="no"?><!DOCTYPE svg PUBLIC "-//W3C//DTD SVG 1.1//EN" "http://www.w3.org/Graphics/SVG/1.1/DTD/svg11.dtd"><svg width="100%" height="100%" viewBox="0 0 21 21" version="1.1" xmlns="http://www.w3.org/2000/svg" xmlns:xlink="http://www.w3.org/1999/xlink" xml:space="preserve" xmlns:serif="http://www.serif.com/" style="fill-rule:evenodd;clip-rule:evenodd;stroke-linejoin:round;stroke-miterlimit:2;"><path d="M11.008204096917,17.466171808841l0.398564662449,-1.135337398815c0.14921669035,-0.424725192377 0.025287542229,-0.94956606491 -0.301472541392,-1.276326148531l-1.056407600106,-1.056407600106l6.609019484716,-6.609019484716c0.165068833677,-0.165068833677 0.318485331862,-0.465114856761 0.356878541288,-0.697951566598l0.414052725127,-2.510992435431c0.026445115478,-0.160449250765 -0.018666392288,-0.31278133599 -0.123857138412,-0.417972082113c-0.105190746123,-0.105190746123 -0.257554082313,-0.150333504854 -0.418003333078,-0.123888389376l-2.510962164234,0.414022453931c-0.232775187676,0.038394189195 -0.532851481956,0.191840958576 -0.697920315633,0.356909792253l-6.609049755913,6.609049755913l-1.056407600106,-1.056407600106c-0.326666330727,-0.326666330727 -0.851416389671,-0.450686292438 -1.276143541584,-0.301592646409l-1.135582507689,0.398622265538c-0.448825796644,0.157566808566 -0.67320998982,0.653334376471 -0.501296336236,1.10731503761c0.171913653584,0.45398066114 0.675052118064,0.694365141333 1.123817372315,0.536858875159l0.82061463526,-0.288098202122l1.309790419348,1.309790419348l-0.968656522988,1.495297774822c-0.565823819584,-0.113572146169 -1.167955982397,0.041983735568 -1.596505309073,0.470533062244c-0.691091412588,0.691091412588 -0.672893201019,1.833804026032 0.040597566878,2.54729479393c0.713490767898,0.713490767898 1.856203381342,0.731688979466 2.54729479393,0.040597566878c0.428549326676,-0.428549326676 0.584105208412,-1.030681489489 0.470533062244,-1.596505309073l1.495266523857,-0.968687773953l1.309759168383,1.309759168383l-0.288066951158,0.820645886225c-0.114584896115,0.326466434652 -0.018729471057,0.681624927613 0.21693307161,0.917226927888c0.088252723426,0.088252723426 0.196197502379,0.159750981978 0.319957054513,0.206621695392c0.45398066114,0.171913653584 0.94971697808,-0.052501790556 1.107252535682,-0.501358838165Z" style="fill:#e17ffc;fill-rule:nonzero;"/></svg>