<?xml version="1.0" encoding="UTF-8" standalone="no"?><!DOCTYPE svg PUBLIC "-//W3C//DTD SVG 1.1//EN" "http://www.w3.org/Graphics/SVG/1.1/DTD/svg11.dtd"><svg width="100%" height="100%" viewBox="0 0 16 16" version="1.1" xmlns="http://www.w3.org/2000/svg" xmlns:xlink="http://www.w3.org/1999/xlink" xml:space="preserve" xmlns:serif="http://www.serif.com/" style="fill-rule:evenodd;clip-rule:evenodd;stroke-linejoin:round;stroke-miterlimit:2;"><path d="M11.049,14.699c-0.306,0.19 -0.666,0.301 -1.049,0.301l-7,0c-1.097,0 -2,-0.903 -2,-2l0,-3l3,0l0,-7c0,-1.097 0.903,-2 2,-2l7,0c1.097,0 2,0.903 2,2l0,2l-3,0l0,2.037l-0.219,0.043l-0.359,0.2l-0.284,0.312l-2.416,3.691l-0.151,0.317l-0.06,0.342l0.032,0.343l0.122,0.325l0.002,0.004l0.208,0.284l0.269,0.213l0.316,0.135l0.349,0.048l1.172,-0l0,0.994l0.067,0.411Z" style="fill:#e0e0e0;"/><path d="M11.982,12.294l0,1.994c0,0.132 0.087,0.249 0.214,0.287c0.128,0.038 0.265,-0.012 0.337,-0.123l2.418,-3.694c0.06,-0.092 0.065,-0.21 0.013,-0.307c-0.052,-0.097 -0.154,-0.157 -0.264,-0.157l-2.172,0l0,-1.994c0,-0.133 -0.088,-0.25 -0.215,-0.287c-0.127,-0.038 -0.264,0.012 -0.336,0.123l-2.418,3.694c-0.061,0.092 -0.065,0.21 -0.013,0.307c0.052,0.096 0.154,0.157 0.264,0.157l2.172,0Z" style="fill:#ffdd65;fill-rule:nonzero;"/><path d="M6,1c-1.097,0 -2,0.903 -2,2l0,7l-3,0l0,3c0,1.097 0.903,2 2,2c1.097,0 2,-0.903 2,-2l0,-10c0,-0.549 0.451,-1 1,-1c0.549,0 1,0.451 1,1l0,3l5,0l0,-1l-4,0l0,-2c0,-1.097 -0.903,-2 -2,-2Zm-4,10l2,0l0,2c0,0.549 -0.451,1 -1,1c-0.549,0 -1,-0.451 -1,-1l0,-2Z" style="fill-opacity:0.2;fill-rule:nonzero;"/></svg>