<?xml version="1.0" encoding="UTF-8" standalone="no"?><!DOCTYPE svg PUBLIC "-//W3C//DTD SVG 1.1//EN" "http://www.w3.org/Graphics/SVG/1.1/DTD/svg11.dtd"><svg width="100%" height="100%" viewBox="0 0 600 300" version="1.1" xmlns="http://www.w3.org/2000/svg" xmlns:xlink="http://www.w3.org/1999/xlink" xml:space="preserve" xmlns:serif="http://www.serif.com/" style="fill-rule:evenodd;clip-rule:evenodd;stroke-linejoin:round;stroke-miterlimit:2;"><g><g id="Logo"><g id="text"><path d="M265.957,166.59c-0,0.636 -0.111,1.257 -0.333,1.861c-0.245,0.666 -0.667,1.292 -1.298,1.853l-0.051,0.044c-2.311,1.918 -4.819,3.343 -7.522,4.281c-2.688,0.932 -5.507,1.4 -8.455,1.4c-3.523,0 -6.817,-0.668 -9.884,-1.994c-3.067,-1.327 -5.742,-3.177 -8.026,-5.548c-2.276,-2.362 -4.055,-5.124 -5.334,-8.288c-1.273,-3.151 -1.916,-6.56 -1.916,-10.229c0,-3.63 0.643,-7.011 1.917,-10.144c1.278,-3.142 3.057,-5.892 5.332,-8.254c2.28,-2.367 4.94,-4.225 7.981,-5.571c3.049,-1.35 6.358,-2.031 9.93,-2.031c3.344,0 6.218,0.45 8.628,1.318c2.404,0.866 4.824,2.283 7.242,4.265c0.498,0.378 0.881,0.78 1.164,1.189c0.338,0.488 0.552,0.981 0.664,1.469c0.089,0.386 0.141,0.845 0.141,1.38c0,1.331 -0.477,2.45 -1.423,3.361c-0.892,0.859 -1.977,1.331 -3.265,1.397c-1.265,0.065 -2.461,-0.325 -3.564,-1.234l-0.037,-0.031c-1.314,-1.137 -2.669,-2.012 -4.072,-2.616c-1.379,-0.594 -3.209,-0.857 -5.479,-0.857c-2.063,0 -4.004,0.417 -5.822,1.256c-1.846,0.852 -3.469,2.024 -4.871,3.514c-1.409,1.498 -2.503,3.238 -3.288,5.217c-0.789,1.99 -1.179,4.114 -1.179,6.373c0,2.297 0.39,4.441 1.179,6.433c0.785,1.979 1.879,3.719 3.288,5.217c1.398,1.486 3.016,2.646 4.857,3.478c1.823,0.824 3.768,1.233 5.836,1.233c1.787,0 3.478,-0.304 5.072,-0.917c0.881,-0.339 1.743,-0.748 2.588,-1.226l0,-7.537l-6.28,0c-1.403,0 -2.573,-0.44 -3.53,-1.269c-1.058,-0.917 -1.59,-2.08 -1.59,-3.491c0,-1.411 0.532,-2.574 1.59,-3.491c0.956,-0.829 2.127,-1.269 3.53,-1.269l11.22,0c1.523,0 2.732,0.521 3.659,1.481c0.909,0.942 1.401,2.145 1.401,3.639l-0,14.34Zm19.84,9.08c-3.618,0 -6.808,-0.812 -9.579,-2.404c-2.797,-1.606 -4.995,-3.815 -6.593,-6.626c-1.582,-2.782 -2.388,-5.977 -2.388,-9.59c0,-3.656 0.808,-6.87 2.388,-9.65c1.598,-2.811 3.796,-5.02 6.593,-6.626c2.772,-1.592 5.952,-2.404 9.549,-2.404c3.598,0 6.775,0.812 9.54,2.405c2.787,1.605 4.983,3.812 6.588,6.621c1.589,2.782 2.401,5.997 2.401,9.654c0,3.609 -0.795,6.802 -2.355,9.587c-1.581,2.823 -3.771,5.035 -6.571,6.638c-2.768,1.585 -5.957,2.394 -9.574,2.394Zm0,-9.4c1.689,0 3.186,-0.375 4.483,-1.157c1.288,-0.777 2.294,-1.843 3.022,-3.195c0.755,-1.402 1.115,-3.027 1.115,-4.867c0,-1.845 -0.363,-3.482 -1.12,-4.904c-0.727,-1.366 -1.731,-2.441 -3.018,-3.218c-1.297,-0.783 -2.794,-1.158 -4.482,-1.158c-1.689,0 -3.187,0.376 -4.485,1.159c-1.294,0.78 -2.31,1.86 -3.055,3.232c-0.77,1.418 -1.139,3.05 -1.139,4.889c0,1.834 0.367,3.454 1.135,4.852c0.746,1.358 1.764,2.43 3.059,3.21c1.299,0.782 2.797,1.158 4.486,1.158Zm40.5,9.4c-3.494,0 -6.639,-0.828 -9.439,-2.463c-2.804,-1.637 -5.025,-3.868 -6.662,-6.694c-1.632,-2.817 -2.459,-5.99 -2.459,-9.523c0,-3.513 0.758,-6.656 2.247,-9.435c1.509,-2.816 3.574,-5.043 6.188,-6.688c2.635,-1.658 5.608,-2.497 8.925,-2.497c2.678,0 5.151,0.562 7.42,1.674c0.761,0.373 1.481,0.791 2.16,1.253l0,-11.667c0,-1.523 0.521,-2.732 1.481,-3.659c0.95,-0.918 2.137,-1.401 3.579,-1.401c1.513,0 2.713,0.505 3.634,1.426c0.921,0.921 1.426,2.121 1.426,3.634l0,27.36c0,3.533 -0.827,6.705 -2.459,9.523c-1.637,2.825 -3.846,5.054 -6.626,6.691c-2.78,1.637 -5.917,2.466 -9.415,2.466Zm0,-9.4c1.648,0 3.122,-0.384 4.415,-1.176c1.297,-0.795 2.315,-1.893 3.061,-3.288c0.769,-1.438 1.144,-3.045 1.144,-4.817c0,-1.798 -0.368,-3.401 -1.134,-4.799c-0.748,-1.366 -1.77,-2.449 -3.07,-3.245c-1.293,-0.792 -2.767,-1.176 -4.415,-1.176c-1.618,0 -3.084,0.388 -4.395,1.181c-1.321,0.799 -2.363,1.885 -3.13,3.255c-0.78,1.394 -1.155,2.991 -1.155,4.783c0,1.766 0.382,3.368 1.165,4.801c0.765,1.399 1.802,2.501 3.12,3.298c1.311,0.793 2.777,1.181 4.395,1.181Zm42.18,9.4c-3.618,0 -6.808,-0.812 -9.579,-2.404c-2.797,-1.606 -4.995,-3.815 -6.593,-6.626c-1.582,-2.782 -2.388,-5.977 -2.388,-9.59c0,-3.656 0.808,-6.87 2.388,-9.65c1.598,-2.811 3.796,-5.02 6.593,-6.626c2.772,-1.592 5.952,-2.404 9.549,-2.404c3.598,0 6.775,0.812 9.54,2.405c2.787,1.605 4.983,3.812 6.588,6.621c1.589,2.782 2.401,5.997 2.401,9.654c0,3.609 -0.795,6.802 -2.355,9.587c-1.581,2.823 -3.771,5.035 -6.571,6.638c-2.768,1.585 -5.957,2.394 -9.574,2.394Zm0,-9.4c1.689,0 3.186,-0.375 4.483,-1.157c1.288,-0.777 2.294,-1.843 3.022,-3.195c0.755,-1.402 1.115,-3.027 1.115,-4.867c0,-1.845 -0.363,-3.482 -1.12,-4.904c-0.727,-1.366 -1.731,-2.441 -3.018,-3.218c-1.297,-0.783 -2.794,-1.158 -4.482,-1.158c-1.689,0 -3.187,0.376 -4.485,1.159c-1.294,0.78 -2.31,1.86 -3.055,3.232c-0.77,1.418 -1.139,3.05 -1.139,4.889c0,1.834 0.367,3.454 1.135,4.852c0.746,1.358 1.764,2.43 3.059,3.21c1.299,0.782 2.797,1.158 4.486,1.158Zm25,-17.3l-0.76,-0c-1.405,0 -2.527,-0.447 -3.397,-1.25c-0.945,-0.873 -1.423,-1.961 -1.423,-3.27c0,-1.419 0.501,-2.538 1.423,-3.39c0.87,-0.803 1.991,-1.25 3.397,-1.25l0.76,0l0,-6.64c0,-1.461 0.496,-2.644 1.426,-3.574c0.93,-0.93 2.113,-1.426 3.574,-1.426c1.461,0 2.644,0.496 3.574,1.426c0.93,0.93 1.426,2.113 1.426,3.574l-0,6.64l3.1,0c1.405,0 2.527,0.447 3.397,1.25c0.922,0.852 1.423,1.97 1.423,3.39c0,1.309 -0.478,2.397 -1.423,3.27c-0.87,0.803 -1.991,1.25 -3.397,1.25l-3.1,0l0,12.82c0,1.093 0.269,2.019 0.87,2.757c0.463,0.568 1.016,0.883 1.69,0.883l2.04,0c1.304,0 2.416,0.493 3.322,1.508c0.812,0.909 1.258,2.063 1.258,3.492c0,1.502 -0.569,2.729 -1.696,3.685c-0.999,0.847 -2.27,1.315 -3.844,1.315l-1.08,0c-2.399,0 -4.556,-0.62 -6.475,-1.844c-1.893,-1.207 -3.389,-2.847 -4.477,-4.93c-1.064,-2.035 -1.608,-4.322 -1.608,-6.867l0,-12.82Z" style="fill:#478cbf;"/><path d="M457.917,166.59c0,0.695 -0.121,1.374 -0.364,2.034c-0.272,0.738 -0.736,1.433 -1.435,2.054l-0.064,0.055c-2.358,1.958 -4.919,3.412 -7.678,4.368c-2.741,0.95 -5.613,1.428 -8.619,1.428c-3.594,0 -6.954,-0.682 -10.083,-2.036c-3.129,-1.354 -5.858,-3.241 -8.188,-5.66c-2.32,-2.408 -4.134,-5.222 -5.437,-8.448c-1.297,-3.209 -1.952,-6.68 -1.952,-10.417c0,-3.698 0.656,-7.141 1.954,-10.332c1.303,-3.202 3.116,-6.005 5.435,-8.412c2.325,-2.414 5.038,-4.308 8.138,-5.681c3.111,-1.378 6.488,-2.074 10.132,-2.074c3.41,0 6.34,0.462 8.798,1.348c2.452,0.884 4.923,2.326 7.384,4.344c0.541,0.412 0.956,0.85 1.264,1.295c0.176,0.255 0.322,0.511 0.439,0.765l0.301,0.875c0.096,0.417 0.154,0.914 0.154,1.492c0,1.474 -0.529,2.712 -1.576,3.721c-0.979,0.943 -2.171,1.463 -3.586,1.536c-1.387,0.071 -2.698,-0.351 -3.907,-1.347l-0.046,-0.039c-1.273,-1.101 -2.584,-1.95 -3.943,-2.535c-1.329,-0.572 -3.094,-0.816 -5.282,-0.816c-1.989,0 -3.86,0.401 -5.612,1.21c-1.787,0.825 -3.359,1.959 -4.717,3.403c-1.366,1.452 -2.426,3.14 -3.187,5.059c-0.766,1.932 -1.144,3.996 -1.144,6.189c0,2.231 0.377,4.314 1.144,6.249c0.761,1.919 1.821,3.606 3.187,5.059c1.352,1.438 2.918,2.56 4.698,3.365c1.758,0.795 3.636,1.188 5.63,1.188c1.724,0 3.355,-0.292 4.893,-0.883c0.77,-0.296 1.526,-0.647 2.267,-1.053l0,-6.744l-5.78,0c-1.533,0 -2.812,-0.485 -3.857,-1.391c-1.173,-1.017 -1.763,-2.305 -1.763,-3.869c0,-1.564 0.59,-2.853 1.763,-3.869c1.046,-0.906 2.324,-1.391 3.857,-1.391l11.22,0c1.674,0 3,0.578 4.019,1.634c0.997,1.032 1.541,2.349 1.541,3.986l0,14.34Zm13.595,-0.98l-2.801,6.847l-0.023,0.055c-0.507,1.158 -1.269,2.01 -2.246,2.589c-0.955,0.566 -1.934,0.829 -2.925,0.829c-2.039,0 -3.608,-0.867 -4.7,-2.615c-1.054,-1.686 -1.191,-3.475 -0.357,-5.371l16.851,-40.239l0.008,-0.019c1.057,-2.466 2.842,-3.615 5.238,-3.615c2.56,0 4.329,1.207 5.264,3.677l16.902,40.337l0.021,0.052c0.77,1.96 0.58,3.723 -0.435,5.298c-1.052,1.633 -2.607,2.496 -4.711,2.496c-1.066,0 -2.082,-0.29 -3.042,-0.894c-0.995,-0.627 -1.717,-1.491 -2.157,-2.592l-2.751,-6.834l-18.135,-0Zm14.045,-10.16l-4.905,-12.182l-4.984,12.182l9.888,-0Zm36.881,21.08c-2.845,0 -5.557,-0.447 -8.135,-1.337c-2.624,-0.905 -4.905,-2.178 -6.85,-3.807c-2.028,-1.698 -3.506,-3.66 -4.453,-5.866c-0.777,-1.662 -0.683,-3.204 0.149,-4.63c0.757,-1.298 1.985,-2.206 3.77,-2.566c1.297,-0.283 2.58,-0.106 3.842,0.578c1.162,0.631 2.052,1.566 2.651,2.826c0.326,0.679 0.886,1.284 1.633,1.854c0.898,0.686 1.99,1.231 3.263,1.655c1.309,0.436 2.686,0.652 4.129,0.652c1.606,0 3.087,-0.243 4.442,-0.744c1.199,-0.444 2.179,-1.071 2.919,-1.914c0.608,-0.693 0.879,-1.561 0.879,-2.581c0,-1.473 -0.615,-2.776 -1.768,-3.943c-1.342,-1.358 -3.596,-2.066 -6.653,-2.389c-5.559,-0.538 -9.906,-2.238 -13.088,-4.972c-3.432,-2.949 -5.131,-6.606 -5.131,-10.956c0,-3.26 0.945,-6.015 2.772,-8.287c1.745,-2.169 4.1,-3.84 7.094,-4.972c2.805,-1.06 5.928,-1.601 9.374,-1.601c2.775,0 5.195,0.405 7.265,1.178c2.118,0.791 3.966,1.891 5.549,3.287c1.538,1.357 2.876,2.961 4.006,4.809c0.92,1.453 1.215,2.845 1.05,4.133c-0.197,1.536 -0.953,2.745 -2.292,3.611l-0.023,0.015c-1.407,0.889 -2.924,1.087 -4.553,0.569c-1.51,-0.48 -2.631,-1.386 -3.386,-2.69l-0.025,-0.045c-0.491,-0.891 -1.085,-1.647 -1.792,-2.261c-0.7,-0.609 -1.525,-1.083 -2.469,-1.433c-0.993,-0.368 -2.165,-0.534 -3.51,-0.534l-0.034,-0c-2.45,-0.033 -4.513,0.379 -6.168,1.322c-1.169,0.666 -1.738,1.698 -1.738,3.078c0,0.774 0.208,1.513 0.608,2.222c0.412,0.731 1.225,1.294 2.327,1.825c1.466,0.706 3.585,1.163 6.335,1.445c5.384,0.543 9.553,2.251 12.562,4.988c3.179,2.892 4.808,6.687 4.808,11.419c0,2.751 -0.594,5.134 -1.728,7.161c-1.119,2 -2.618,3.68 -4.499,5.037c-1.813,1.308 -3.877,2.289 -6.195,2.932c-2.235,0.62 -4.548,0.931 -6.938,0.931Z" style="fill:#fc7f7f;"/></g><path id="godot_gas" d="M142.522,64.945c6.425,-0.12 14.883,6.198 18.92,12.73c7.749,12.539 20.029,20.746 32.915,16.406l3.28,-1.105c7.372,-2.483 15.525,0.46 19.427,7.013l5.894,9.897c3.902,6.553 2.454,14.869 -3.45,19.818l-2.626,2.201c-10.32,8.649 -10.32,24.163 0,32.812l2.626,2.201c5.904,4.949 7.352,13.265 3.45,19.818l-5.893,9.897c-3.902,6.553 -12.055,9.496 -19.428,7.013l-3.278,-1.105c-12.886,-4.34 -26.744,3.417 -29.31,16.407l-0.653,3.305c-1.468,7.432 -8.174,12.805 -15.978,12.805l-11.788,0c-7.804,0 -14.509,-5.374 -15.978,-12.805l-0.653,-3.307c-2.567,-12.989 -16.424,-20.745 -29.31,-16.405l-3.278,1.104c-7.373,2.484 -15.525,-0.46 -19.428,-7.013l-5.894,-9.897c-3.902,-6.553 -2.455,-14.869 3.449,-19.818l2.626,-2.201c10.32,-8.65 10.32,-24.163 0,-32.812l-2.626,-2.201c-5.904,-4.949 -7.352,-13.265 -3.449,-19.817l5.894,-9.897c3.902,-6.553 12.055,-9.496 19.427,-7.013l3.279,1.104c12.886,4.34 30.799,-4.768 34.943,-16.405c3.227,-9.061 6.19,-12.53 16.892,-12.731Zm37.609,97.256c6.474,-14.22 3.933,-29.563 -6.973,-42.088c-3.409,-3.919 -18.427,-16.353 -23.274,-30.323c-0.635,-1.833 -2.136,-3.234 -4.007,-3.744c-1.863,-0.501 -3.873,-0.063 -5.353,1.192c-9.149,7.78 -11.323,20.925 -6.459,39.072c-6.038,-0.764 -8.825,-3.358 -11.155,-7.018c-0.922,-1.45 -2.434,-2.424 -4.133,-2.665c-1.703,-0.235 -3.421,0.274 -4.71,1.41c-9.114,8.025 -18.656,29.067 -6.769,48.648c7.416,12.207 20.913,19.792 35.225,19.792c16.129,0 30.893,-9.528 37.609,-24.276Z" style="fill:#fc7f7f;"/></g><g><g id="text1" serif:id="text"><path d="M265.957,166.59c-0,0.636 -0.111,1.257 -0.333,1.861c-0.245,0.666 -0.667,1.292 -1.298,1.853l-0.051,0.044c-2.311,1.918 -4.819,3.343 -7.522,4.281c-2.688,0.932 -5.507,1.4 -8.455,1.4c-3.523,0 -6.817,-0.668 -9.884,-1.994c-3.067,-1.327 -5.742,-3.177 -8.026,-5.548c-2.276,-2.362 -4.055,-5.124 -5.334,-8.288c-1.273,-3.151 -1.916,-6.56 -1.916,-10.229c0,-3.63 0.643,-7.011 1.917,-10.144c1.278,-3.142 3.057,-5.892 5.332,-8.254c2.28,-2.367 4.94,-4.225 7.981,-5.571c3.049,-1.35 6.358,-2.031 9.93,-2.031c3.344,0 6.218,0.45 8.628,1.318c2.404,0.866 4.824,2.283 7.242,4.265c0.498,0.378 0.881,0.78 1.164,1.189c0.338,0.488 0.552,0.981 0.664,1.469c0.089,0.386 0.141,0.845 0.141,1.38c0,1.331 -0.477,2.45 -1.423,3.361c-0.892,0.859 -1.977,1.331 -3.265,1.397c-1.265,0.065 -2.461,-0.325 -3.564,-1.234l-0.037,-0.031c-1.314,-1.137 -2.669,-2.012 -4.072,-2.616c-1.379,-0.594 -3.209,-0.857 -5.479,-0.857c-2.063,0 -4.004,0.417 -5.822,1.256c-1.846,0.852 -3.469,2.024 -4.871,3.514c-1.409,1.498 -2.503,3.238 -3.288,5.217c-0.789,1.99 -1.179,4.114 -1.179,6.373c0,2.297 0.39,4.441 1.179,6.433c0.785,1.979 1.879,3.719 3.288,5.217c1.398,1.486 3.016,2.646 4.857,3.478c1.823,0.824 3.768,1.233 5.836,1.233c1.787,0 3.478,-0.304 5.072,-0.917c0.881,-0.339 1.743,-0.748 2.588,-1.226l0,-7.537l-6.28,0c-1.403,0 -2.573,-0.44 -3.53,-1.269c-1.058,-0.917 -1.59,-2.08 -1.59,-3.491c0,-1.411 0.532,-2.574 1.59,-3.491c0.956,-0.829 2.127,-1.269 3.53,-1.269l11.22,0c1.523,0 2.732,0.521 3.659,1.481c0.909,0.942 1.401,2.145 1.401,3.639l-0,14.34Zm19.84,9.08c-3.618,0 -6.808,-0.812 -9.579,-2.404c-2.797,-1.606 -4.995,-3.815 -6.593,-6.626c-1.582,-2.782 -2.388,-5.977 -2.388,-9.59c0,-3.656 0.808,-6.87 2.388,-9.65c1.598,-2.811 3.796,-5.02 6.593,-6.626c2.772,-1.592 5.952,-2.404 9.549,-2.404c3.598,0 6.775,0.812 9.54,2.405c2.787,1.605 4.983,3.812 6.588,6.621c1.589,2.782 2.401,5.997 2.401,9.654c0,3.609 -0.795,6.802 -2.355,9.587c-1.581,2.823 -3.771,5.035 -6.571,6.638c-2.768,1.585 -5.957,2.394 -9.574,2.394Zm0,-9.4c1.689,0 3.186,-0.375 4.483,-1.157c1.288,-0.777 2.294,-1.843 3.022,-3.195c0.755,-1.402 1.115,-3.027 1.115,-4.867c0,-1.845 -0.363,-3.482 -1.12,-4.904c-0.727,-1.366 -1.731,-2.441 -3.018,-3.218c-1.297,-0.783 -2.794,-1.158 -4.482,-1.158c-1.689,0 -3.187,0.376 -4.485,1.159c-1.294,0.78 -2.31,1.86 -3.055,3.232c-0.77,1.418 -1.139,3.05 -1.139,4.889c0,1.834 0.367,3.454 1.135,4.852c0.746,1.358 1.764,2.43 3.059,3.21c1.299,0.782 2.797,1.158 4.486,1.158Zm40.5,9.4c-3.494,0 -6.639,-0.828 -9.439,-2.463c-2.804,-1.637 -5.025,-3.868 -6.662,-6.694c-1.632,-2.817 -2.459,-5.99 -2.459,-9.523c0,-3.513 0.758,-6.656 2.247,-9.435c1.509,-2.816 3.574,-5.043 6.188,-6.688c2.635,-1.658 5.608,-2.497 8.925,-2.497c2.678,0 5.151,0.562 7.42,1.674c0.761,0.373 1.481,0.791 2.16,1.253l0,-11.667c0,-1.523 0.521,-2.732 1.481,-3.659c0.95,-0.918 2.137,-1.401 3.579,-1.401c1.513,0 2.713,0.505 3.634,1.426c0.921,0.921 1.426,2.121 1.426,3.634l0,27.36c0,3.533 -0.827,6.705 -2.459,9.523c-1.637,2.825 -3.846,5.054 -6.626,6.691c-2.78,1.637 -5.917,2.466 -9.415,2.466Zm0,-9.4c1.648,0 3.122,-0.384 4.415,-1.176c1.297,-0.795 2.315,-1.893 3.061,-3.288c0.769,-1.438 1.144,-3.045 1.144,-4.817c0,-1.798 -0.368,-3.401 -1.134,-4.799c-0.748,-1.366 -1.77,-2.449 -3.07,-3.245c-1.293,-0.792 -2.767,-1.176 -4.415,-1.176c-1.618,0 -3.084,0.388 -4.395,1.181c-1.321,0.799 -2.363,1.885 -3.13,3.255c-0.78,1.394 -1.155,2.991 -1.155,4.783c0,1.766 0.382,3.368 1.165,4.801c0.765,1.399 1.802,2.501 3.12,3.298c1.311,0.793 2.777,1.181 4.395,1.181Zm42.18,9.4c-3.618,0 -6.808,-0.812 -9.579,-2.404c-2.797,-1.606 -4.995,-3.815 -6.593,-6.626c-1.582,-2.782 -2.388,-5.977 -2.388,-9.59c0,-3.656 0.808,-6.87 2.388,-9.65c1.598,-2.811 3.796,-5.02 6.593,-6.626c2.772,-1.592 5.952,-2.404 9.549,-2.404c3.598,0 6.775,0.812 9.54,2.405c2.787,1.605 4.983,3.812 6.588,6.621c1.589,2.782 2.401,5.997 2.401,9.654c0,3.609 -0.795,6.802 -2.355,9.587c-1.581,2.823 -3.771,5.035 -6.571,6.638c-2.768,1.585 -5.957,2.394 -9.574,2.394Zm0,-9.4c1.689,0 3.186,-0.375 4.483,-1.157c1.288,-0.777 2.294,-1.843 3.022,-3.195c0.755,-1.402 1.115,-3.027 1.115,-4.867c0,-1.845 -0.363,-3.482 -1.12,-4.904c-0.727,-1.366 -1.731,-2.441 -3.018,-3.218c-1.297,-0.783 -2.794,-1.158 -4.482,-1.158c-1.689,0 -3.187,0.376 -4.485,1.159c-1.294,0.78 -2.31,1.86 -3.055,3.232c-0.77,1.418 -1.139,3.05 -1.139,4.889c0,1.834 0.367,3.454 1.135,4.852c0.746,1.358 1.764,2.43 3.059,3.21c1.299,0.782 2.797,1.158 4.486,1.158Zm25,-17.3l-0.76,-0c-1.405,0 -2.527,-0.447 -3.397,-1.25c-0.945,-0.873 -1.423,-1.961 -1.423,-3.27c0,-1.419 0.501,-2.538 1.423,-3.39c0.87,-0.803 1.991,-1.25 3.397,-1.25l0.76,0l0,-6.64c0,-1.461 0.496,-2.644 1.426,-3.574c0.93,-0.93 2.113,-1.426 3.574,-1.426c1.461,0 2.644,0.496 3.574,1.426c0.93,0.93 1.426,2.113 1.426,3.574l-0,6.64l3.1,0c1.405,0 2.527,0.447 3.397,1.25c0.922,0.852 1.423,1.97 1.423,3.39c0,1.309 -0.478,2.397 -1.423,3.27c-0.87,0.803 -1.991,1.25 -3.397,1.25l-3.1,0l0,12.82c0,1.093 0.269,2.019 0.87,2.757c0.463,0.568 1.016,0.883 1.69,0.883l2.04,0c1.304,0 2.416,0.493 3.322,1.508c0.812,0.909 1.258,2.063 1.258,3.492c0,1.502 -0.569,2.729 -1.696,3.685c-0.999,0.847 -2.27,1.315 -3.844,1.315l-1.08,0c-2.399,0 -4.556,-0.62 -6.475,-1.844c-1.893,-1.207 -3.389,-2.847 -4.477,-4.93c-1.064,-2.035 -1.608,-4.322 -1.608,-6.867l0,-12.82Z" style="fill:#478cbf;"/><path d="M457.917,166.59c0,0.695 -0.121,1.374 -0.364,2.034c-0.272,0.738 -0.736,1.433 -1.435,2.054l-0.064,0.055c-2.358,1.958 -4.919,3.412 -7.678,4.368c-2.741,0.95 -5.613,1.428 -8.619,1.428c-3.594,0 -6.954,-0.682 -10.083,-2.036c-3.129,-1.354 -5.858,-3.241 -8.188,-5.66c-2.32,-2.408 -4.134,-5.222 -5.437,-8.448c-1.297,-3.209 -1.952,-6.68 -1.952,-10.417c0,-3.698 0.656,-7.141 1.954,-10.332c1.303,-3.202 3.116,-6.005 5.435,-8.412c2.325,-2.414 5.038,-4.308 8.138,-5.681c3.111,-1.378 6.488,-2.074 10.132,-2.074c3.41,0 6.34,0.462 8.798,1.348c2.452,0.884 4.923,2.326 7.384,4.344c0.541,0.412 0.956,0.85 1.264,1.295c0.176,0.255 0.322,0.511 0.439,0.765l0.301,0.875c0.096,0.417 0.154,0.914 0.154,1.492c0,1.474 -0.529,2.712 -1.576,3.721c-0.979,0.943 -2.171,1.463 -3.586,1.536c-1.387,0.071 -2.698,-0.351 -3.907,-1.347l-0.046,-0.039c-1.273,-1.101 -2.584,-1.95 -3.943,-2.535c-1.329,-0.572 -3.094,-0.816 -5.282,-0.816c-1.989,0 -3.86,0.401 -5.612,1.21c-1.787,0.825 -3.359,1.959 -4.717,3.403c-1.366,1.452 -2.426,3.14 -3.187,5.059c-0.766,1.932 -1.144,3.996 -1.144,6.189c0,2.231 0.377,4.314 1.144,6.249c0.761,1.919 1.821,3.606 3.187,5.059c1.352,1.438 2.918,2.56 4.698,3.365c1.758,0.795 3.636,1.188 5.63,1.188c1.724,0 3.355,-0.292 4.893,-0.883c0.77,-0.296 1.526,-0.647 2.267,-1.053l0,-6.744l-5.78,0c-1.533,0 -2.812,-0.485 -3.857,-1.391c-1.173,-1.017 -1.763,-2.305 -1.763,-3.869c0,-1.564 0.59,-2.853 1.763,-3.869c1.046,-0.906 2.324,-1.391 3.857,-1.391l11.22,0c1.674,0 3,0.578 4.019,1.634c0.997,1.032 1.541,2.349 1.541,3.986l0,14.34Zm13.595,-0.98l-2.801,6.847l-0.023,0.055c-0.507,1.158 -1.269,2.01 -2.246,2.589c-0.955,0.566 -1.934,0.829 -2.925,0.829c-2.039,0 -3.608,-0.867 -4.7,-2.615c-1.054,-1.686 -1.191,-3.475 -0.357,-5.371l16.851,-40.239l0.008,-0.019c1.057,-2.466 2.842,-3.615 5.238,-3.615c2.56,0 4.329,1.207 5.264,3.677l16.902,40.337l0.021,0.052c0.77,1.96 0.58,3.723 -0.435,5.298c-1.052,1.633 -2.607,2.496 -4.711,2.496c-1.066,0 -2.082,-0.29 -3.042,-0.894c-0.995,-0.627 -1.717,-1.491 -2.157,-2.592l-2.751,-6.834l-18.135,-0Zm14.045,-10.16l-4.905,-12.182l-4.984,12.182l9.888,-0Zm36.881,21.08c-2.845,0 -5.557,-0.447 -8.135,-1.337c-2.624,-0.905 -4.905,-2.178 -6.85,-3.807c-2.028,-1.698 -3.506,-3.66 -4.453,-5.866c-0.777,-1.662 -0.683,-3.204 0.149,-4.63c0.757,-1.298 1.985,-2.206 3.77,-2.566c1.297,-0.283 2.58,-0.106 3.842,0.578c1.162,0.631 2.052,1.566 2.651,2.826c0.326,0.679 0.886,1.284 1.633,1.854c0.898,0.686 1.99,1.231 3.263,1.655c1.309,0.436 2.686,0.652 4.129,0.652c1.606,0 3.087,-0.243 4.442,-0.744c1.199,-0.444 2.179,-1.071 2.919,-1.914c0.608,-0.693 0.879,-1.561 0.879,-2.581c0,-1.473 -0.615,-2.776 -1.768,-3.943c-1.342,-1.358 -3.596,-2.066 -6.653,-2.389c-5.559,-0.538 -9.906,-2.238 -13.088,-4.972c-3.432,-2.949 -5.131,-6.606 -5.131,-10.956c0,-3.26 0.945,-6.015 2.772,-8.287c1.745,-2.169 4.1,-3.84 7.094,-4.972c2.805,-1.06 5.928,-1.601 9.374,-1.601c2.775,0 5.195,0.405 7.265,1.178c2.118,0.791 3.966,1.891 5.549,3.287c1.538,1.357 2.876,2.961 4.006,4.809c0.92,1.453 1.215,2.845 1.05,4.133c-0.197,1.536 -0.953,2.745 -2.292,3.611l-0.023,0.015c-1.407,0.889 -2.924,1.087 -4.553,0.569c-1.51,-0.48 -2.631,-1.386 -3.386,-2.69l-0.025,-0.045c-0.491,-0.891 -1.085,-1.647 -1.792,-2.261c-0.7,-0.609 -1.525,-1.083 -2.469,-1.433c-0.993,-0.368 -2.165,-0.534 -3.51,-0.534l-0.034,-0c-2.45,-0.033 -4.513,0.379 -6.168,1.322c-1.169,0.666 -1.738,1.698 -1.738,3.078c0,0.774 0.208,1.513 0.608,2.222c0.412,0.731 1.225,1.294 2.327,1.825c1.466,0.706 3.585,1.163 6.335,1.445c5.384,0.543 9.553,2.251 12.562,4.988c3.179,2.892 4.808,6.687 4.808,11.419c0,2.751 -0.594,5.134 -1.728,7.161c-1.119,2 -2.618,3.68 -4.499,5.037c-1.813,1.308 -3.877,2.289 -6.195,2.932c-2.235,0.62 -4.548,0.931 -6.938,0.931Z" style="fill:#fc7f7f;"/></g><path id="godot_gas1" serif:id="godot_gas" d="M142.522,64.945c6.425,-0.12 14.883,6.198 18.92,12.73c7.749,12.539 20.029,20.746 32.915,16.406l3.28,-1.105c7.372,-2.483 15.525,0.46 19.427,7.013l5.894,9.897c3.902,6.553 2.454,14.869 -3.45,19.818l-2.626,2.201c-10.32,8.649 -10.32,24.163 0,32.812l2.626,2.201c5.904,4.949 7.352,13.265 3.45,19.818l-5.893,9.897c-3.902,6.553 -12.055,9.496 -19.428,7.013l-3.278,-1.105c-12.886,-4.34 -26.744,3.417 -29.31,16.407l-0.653,3.305c-1.468,7.432 -8.174,12.805 -15.978,12.805l-11.788,0c-7.804,0 -14.509,-5.374 -15.978,-12.805l-0.653,-3.307c-2.567,-12.989 -16.424,-20.745 -29.31,-16.405l-3.278,1.104c-7.373,2.484 -15.525,-0.46 -19.428,-7.013l-5.894,-9.897c-3.902,-6.553 -2.455,-14.869 3.449,-19.818l2.626,-2.201c10.32,-8.65 10.32,-24.163 0,-32.812l-2.626,-2.201c-5.904,-4.949 -7.352,-13.265 -3.449,-19.817l5.894,-9.897c3.902,-6.553 12.055,-9.496 19.427,-7.013l3.279,1.104c12.886,4.34 30.799,-4.768 34.943,-16.405c3.227,-9.061 6.19,-12.53 16.892,-12.731Zm37.609,97.256c6.474,-14.22 3.933,-29.563 -6.973,-42.088c-3.409,-3.919 -18.427,-16.353 -23.274,-30.323c-0.635,-1.833 -2.136,-3.234 -4.007,-3.744c-1.863,-0.501 -3.873,-0.063 -5.353,1.192c-9.149,7.78 -11.323,20.925 -6.459,39.072c-6.038,-0.764 -8.825,-3.358 -11.155,-7.018c-0.922,-1.45 -2.434,-2.424 -4.133,-2.665c-1.703,-0.235 -3.421,0.274 -4.71,1.41c-9.114,8.025 -18.656,29.067 -6.769,48.648c7.416,12.207 20.913,19.792 35.225,19.792c16.129,0 30.893,-9.528 37.609,-24.276Z" style="fill:#fc7f7f;"/></g></g></svg>